<?xml version="1.0" encoding="UTF-8"?>
<svg version="1.1" xmlns="http://www.w3.org/2000/svg" width="512" height="512">
<path d="M0 0 C168.96 0 337.92 0 512 0 C512 168.96 512 337.92 512 512 C343.04 512 174.08 512 0 512 C0 343.04 0 174.08 0 0 Z " fill="#00353B" transform="translate(0,0)"/>
<path d="M0 0 C4.52169052 2.26084526 6.74463837 4.53108917 9 9 C9.36076355 11.57539368 9.36076355 11.57539368 9.34057617 14.34106445 C9.34034958 15.3817659 9.34012299 16.42246735 9.33988953 17.4947052 C9.32440567 18.6063353 9.30892181 19.71796539 9.29296875 20.86328125 C9.28872391 22.01040085 9.28447906 23.15752045 9.28010559 24.33940125 C9.26333484 27.99734121 9.22568435 31.654727 9.1875 35.3125 C9.17245114 37.79491391 9.15876309 40.27733647 9.14648438 42.75976562 C9.11343649 48.84003231 9.0632524 54.91997656 9 61 C9.6609668 60.52876709 10.32193359 60.05753418 11.00292969 59.57202148 C11.88368164 58.94884033 12.76443359 58.32565918 13.671875 57.68359375 C14.5390918 57.06798584 15.40630859 56.45237793 16.29980469 55.81811523 C28.68092854 47.48156647 42.51993795 47.2254875 56.921875 49.6640625 C71.23595766 53.60214744 82.08922812 62.72466433 90 75 C98.54390941 90.22089774 100.50502077 108.0093085 96.375 124.875 C93.86338532 133.19639953 90.40961535 141.14568025 85 148 C97.82284503 142.90833731 97.82284503 142.90833731 109 135 C109.66128906 134.42894531 110.32257813 133.85789062 111.00390625 133.26953125 C121.64110486 123.48007902 127.45685263 110.16685346 128.09875488 95.78782654 C128.14432927 93.29325813 128.16379618 90.79963949 128.17578125 88.3046875 C128.19896003 86.43618641 128.22307654 84.56769676 128.24804688 82.69921875 C128.28324633 79.77840248 128.31257763 76.85801511 128.32592773 73.93701172 C128.34139666 71.10072463 128.38156801 68.26565309 128.42578125 65.4296875 C128.42387283 64.55875458 128.42196442 63.68782166 128.41999817 62.79049683 C128.50172715 58.73698885 128.66106355 56.54356972 130.84838867 53.03564453 C135.12244184 48.99195279 137.82758762 48.56835203 143.48828125 48.67578125 C147.12638359 49.14539633 149.27241124 50.61335984 152 53 C154.39575211 56.59362816 154.25580198 58.21231607 154.27124023 62.48413086 C154.27646698 63.13828979 154.28169373 63.79244873 154.28707886 64.46643066 C154.29731694 65.88723796 154.30309894 67.30808274 154.30496025 68.7289257 C154.30863198 70.98836954 154.32538595 73.2473775 154.34571838 75.50672913 C154.40101344 81.93091653 154.43161345 88.35517102 154.45629883 94.77954102 C154.4723194 98.71242406 154.50270016 102.64500513 154.54106331 106.57773018 C154.55260137 108.06659255 154.55864267 109.55550935 154.55874443 111.04441643 C154.55984504 122.87552906 154.89443359 135.57756286 163 145 C169.53194096 150.09491395 174.95738212 150.58217341 183 150 C189.52899812 148.78482369 194.63108328 146.03052813 199 141 C205.01184782 132.01122432 206.44693746 121.65054614 206.51171875 111.0859375 C206.52966995 109.99028473 206.54762115 108.89463196 206.56611633 107.76577759 C206.61984542 104.30222299 206.65399487 100.83880321 206.6875 97.375 C206.72070606 95.01170014 206.75519872 92.64841798 206.79101562 90.28515625 C206.87555001 84.52355853 206.94405648 78.76194252 207 73 C206.36497559 73.02618408 205.72995117 73.05236816 205.07568359 73.0793457 C202.17571122 73.18380395 199.2761353 73.24847747 196.375 73.3125 C195.37597656 73.35439453 194.37695312 73.39628906 193.34765625 73.43945312 C185.00369078 73.57759825 185.00369078 73.57759825 181.3515625 70.60546875 C177.70691868 66.56730027 177.60992968 63.85339833 177.640625 58.55078125 C178.21960034 54.44131496 179.99914929 52.78650423 183 50 C185.50497004 48.74751498 187.20853274 48.88625594 190.0078125 48.90234375 C190.99394531 48.90556641 191.98007812 48.90878906 192.99609375 48.91210938 C194.02863281 48.92048828 195.06117188 48.92886719 196.125 48.9375 C197.68541016 48.94426758 197.68541016 48.94426758 199.27734375 48.95117188 C201.85161962 48.96298048 204.42578146 48.97944925 207 49 C206.9685791 47.794646 206.9371582 46.58929199 206.90478516 45.34741211 C206.79578125 40.85435964 206.72715725 36.36142282 206.67041016 31.86743164 C206.64032785 29.92647618 206.59945037 27.98565564 206.54736328 26.04516602 C206.47416745 23.24721935 206.44045899 20.45107664 206.4140625 17.65234375 C206.38309479 16.7916478 206.35212708 15.93095184 206.32022095 15.04417419 C206.31706431 9.33027596 207.54833404 6.42361526 211.51278687 2.28956604 C214.42367387 -0.23447099 217.03571002 -0.33652604 220.8359375 -0.28125 C225.37293076 0.30839533 228.7845488 2.50526866 231.6809082 6.06713867 C233.52970123 10.17773475 233.37419821 13.78360462 233.29296875 18.23828125 C233.28872391 19.11904831 233.28447906 19.99981537 233.28010559 20.90727234 C233.26336644 23.7093311 233.2257233 26.51066009 233.1875 29.3125 C233.17244699 31.21678646 233.15875966 33.12108424 233.14648438 35.02539062 C233.11347854 39.68387322 233.06172929 44.34181305 233 49 C234.12494873 48.98428955 235.24989746 48.9685791 236.40893555 48.95239258 C240.59278165 48.89798784 244.77659662 48.86361164 248.96069336 48.83520508 C250.76966617 48.82014245 252.5786026 48.79968823 254.38745117 48.77368164 C256.99146515 48.7371868 259.5949952 48.72024843 262.19921875 48.70703125 C263.40731453 48.68380547 263.40731453 48.68380547 264.63981628 48.66011047 C269.27400514 48.65872954 272.21571139 49.03158807 276 52 C278.80398225 55.38411651 279.64319599 58.51240073 279.4921875 62.93359375 C278.57633142 66.77873555 275.97417091 69.50343318 273 72 C269.1784462 73.27385127 265.5931553 73.12353188 261.61328125 73.09765625 C260.79627243 73.0962413 259.97926361 73.09482635 259.13749695 73.09336853 C256.52912732 73.08777294 253.92084366 73.07522129 251.3125 73.0625 C249.54362103 73.05748443 247.77474072 73.05292162 246.00585938 73.04882812 C241.67053981 73.03780496 237.33528448 73.02054338 233 73 C233.06737451 80.48932777 233.15732539 87.9781488 233.26245117 95.46704102 C233.29555994 98.01092491 233.32363488 100.55487979 233.34643555 103.09887695 C233.38024032 106.77065072 233.43256984 110.44178217 233.48828125 114.11328125 C233.49786613 115.79989616 233.49786613 115.79989616 233.50764465 117.52058411 C233.68026557 126.94157612 234.72060472 136.57889648 241 144 C245.6651659 146.94749044 250.67298517 146.4743765 256 146 C261.27339018 144.34560308 264.45333989 140.77427313 268.16796875 136.83984375 C271.02093475 133.97471158 272.69640088 133.04047988 276.75 132.5 C281.22865826 132.58278481 283.48191367 134.50230583 286.65234375 137.4921875 C289.2189176 140.36377448 289.34804859 142.92430228 289.265625 146.72265625 C288.37645502 154.34598126 284.34705395 159.43487486 278.5625 164.2109375 C267.09466637 172.21744329 254.64329214 174.11429278 241 173 C230.43002192 170.37105673 222.34599869 163.69636857 216 155 C216 154.34 216 153.68 216 153 C215.34 153 214.68 153 214 153 C213.814375 153.680625 213.62875 154.36125 213.4375 155.0625 C209.01927994 164.09103665 199.99652937 168.44556764 191 172 C176.66102413 174.7998226 162.09373108 173.88713007 149.625 165.8125 C140.55460639 158.85902159 136.58734585 150.69591136 133 140 C129.73245484 143.12611933 129.73245484 143.12611933 126.82421875 146.57421875 C119.48093295 156.32737544 107.16688557 161.89848975 96 166 C94.19982422 166.74056641 94.19982422 166.74056641 92.36328125 167.49609375 C68.99003214 176.20463828 37.28422805 176.86656869 14.2878418 166.67260742 C1.22460662 160.38805498 -8.114174 150.38388384 -13.05962181 136.79029179 C-16.05467454 127.90336615 -17.4442109 119.61656239 -17.38818359 110.25219727 C-17.39344055 109.14656937 -17.39869751 108.04094147 -17.40411377 106.90180969 C-17.4171935 103.28985994 -17.40862266 99.67835955 -17.3984375 96.06640625 C-17.40046067 93.53962622 -17.40337414 91.01284676 -17.40713501 88.48606873 C-17.41154117 83.21177663 -17.40546883 77.93759946 -17.39111328 72.66333008 C-17.37473254 66.57485357 -17.38012543 60.48667766 -17.3965925 54.3982082 C-17.41185719 48.51740432 -17.41023084 42.63669358 -17.4014473 36.75587273 C-17.39944672 34.26198217 -17.40189955 31.76808392 -17.40888596 29.27420235 C-17.41649641 25.79660711 -17.4049039 22.31959291 -17.38818359 18.84204102 C-17.39729263 17.29830811 -17.39729263 17.29830811 -17.40658569 15.72338867 C-17.3288553 7.00578591 -17.3288553 7.00578591 -14 3 C-9.78645736 -0.59390402 -5.30294119 -0.8417367 0 0 Z " fill="#38EBF4" transform="translate(120,170)"/>
<path d="M0 0 C8.60756998 4.98000378 12.68924387 12.64015632 15.7734375 21.87109375 C18.32411348 32.42212789 17.48031287 43.78533382 12.66015625 53.5390625 C8.05626207 61.01469265 2.15340225 66.78449623 -6.33984375 69.5390625 C-17.67199214 70.51619064 -26.39798756 69.49242733 -35.44921875 62.34765625 C-43.21844236 54.91552705 -45.919838 46.23161321 -46.578125 35.7421875 C-46.78816427 24.55483282 -45.39075834 15.31947596 -38.11328125 6.32421875 C-27.33108833 -4.52922214 -13.77217275 -6.49596554 0 0 Z " fill="#00363C" transform="translate(175.33984375,247.4609375)"/>
<path d="M0 0 C3.5677811 2.35149209 5.84221079 4.99692157 7.75 8.8125 C8.15331428 14.05558569 7.61051133 17.37377553 4.75 21.8125 C0.09672675 26.01179538 -2.78067768 27.17283694 -8.9296875 27.09375 C-13.48480628 26.54161439 -16.14357501 24.02956749 -19.125 20.75 C-20.89882705 16.11834049 -21.02360971 11.69770205 -20.25 6.8125 C-18.63735434 3.5744099 -16.31259073 1.61860332 -13.4375 -0.5625 C-8.63065912 -1.93588311 -4.6064147 -1.68311307 0 0 Z " fill="#37E8F1" transform="translate(268.25,171.1875)"/>
</svg>
